<?xml version="1.0" encoding="utf-8"?>
<!-- Generator: Adobe Illustrator 23.0.6, SVG Export Plug-In . SVG Version: 6.00 Build 0)  -->
<svg version="1.1" id="Layer_1" xmlns="http://www.w3.org/2000/svg" xmlns:xlink="http://www.w3.org/1999/xlink" x="0px" y="0px"
	 viewBox="0 0 180.45 80.72" style="enable-background:new 0 0 180.45 80.72;" xml:space="preserve">
<style type="text/css">
	.st0{fill:none;}
	.st1{fill:#00AE5B;}
	.st2{fill:#034694;}
</style>
<g>
	<rect x="-108.66" y="-612.82" class="st0" width="1190.55" height="841.89"/>
	<rect x="-108.66" y="-612.82" class="st0" width="1190.55" height="841.89"/>
	<g>
		<polygon class="st1" points="44.32,30.03 44.34,30.01 44.32,30 		"/>
		<polygon class="st2" points="105.75,21.41 102.15,25.67 101.45,25.67 97.93,21.43 97.93,29.78 93.99,29.78 93.99,15.72 
			98.15,15.72 101.85,20.48 105.55,15.72 109.68,15.72 109.68,29.78 105.75,29.78 		"/>
		<path class="st2" d="M115.33,24.82c0,1.39,0.88,2.17,1.99,2.17c1.25,0,2.05-1,2.05-2.17c0-1.32-0.74-2.19-2.05-2.19
			C116.21,22.63,115.33,23.44,115.33,24.82 M119.57,19.86h3.47v9.92h-3.42l-0.16-1.06c-0.84,0.97-2.17,1.31-3.27,1.25
			c-2.92-0.18-4.54-2.25-4.54-5.14c0-2.93,1.93-5.18,4.82-5.18c1.41,0,2.39,0.48,2.91,1.29L119.57,19.86z"/>
		<path class="st2" d="M128.95,15.72v5.21c0.7-0.91,1.47-1.29,2.65-1.29c2.01,0,3.9,1.31,3.9,4.64v5.5h-3.68V24.3
			c-0.04-1.13-0.6-1.47-1.35-1.47c-0.72,0-1.53,0.54-1.54,1.71v5.24h-3.72V15.72H128.95z"/>
		<path class="st2" d="M140.66,24.82c0,1.39,0.88,2.17,1.99,2.17c1.25,0,2.05-1,2.05-2.17c0-1.32-0.74-2.19-2.05-2.19
			C141.55,22.63,140.66,23.44,140.66,24.82 M144.9,19.86h3.48v9.92h-3.42l-0.16-1.06c-0.84,0.97-2.17,1.31-3.27,1.25
			c-2.91-0.18-4.54-2.25-4.54-5.14c0-2.93,1.93-5.18,4.82-5.18c1.41,0,2.39,0.48,2.92,1.29L144.9,19.86z"/>
		<polygon class="st2" points="105.75,38.99 102.15,43.25 101.45,43.25 97.93,39.01 97.93,47.36 93.99,47.36 93.99,33.3 98.15,33.3 
			101.85,38.06 105.55,33.3 109.68,33.3 109.68,47.36 105.75,47.36 		"/>
		<path class="st2" d="M115.77,37.44v5.49c0,1.22,0.7,1.64,1.39,1.64c0.88,0,1.71-0.54,1.71-1.85v-5.29h3.66v9.93h-3.27l-0.16-1.08
			c-0.84,0.99-2.09,1.35-3.13,1.32c-2.09-0.02-3.88-1.12-3.88-4.66v-5.51L115.77,37.44L115.77,37.44z"/>
		<path class="st2" d="M130.72,47.36v-5.5c0-1.15-0.38-1.53-1.04-1.53c-0.62,0-1.29,0.5-1.31,1.58v5.45h-3.68v-9.92h3.11l0.26,1.07
			c0.62-0.87,1.71-1.29,2.73-1.27c1,0.02,1.97,0.48,2.47,1.41c0.82-1.03,1.93-1.43,3.29-1.43c2.15,0,3.8,1.32,3.8,4.62v5.53h-3.7
			v-5.5c0-1.04-0.48-1.47-1.02-1.47c-0.62,0-1.29,0.42-1.29,1.51v5.46L130.72,47.36L130.72,47.36z"/>
		<path class="st2" d="M146.03,42.5c0,1.04,0.74,2.07,1.99,2.07c1.1,0,1.99-0.78,1.99-2.17s-0.88-2.19-1.99-2.19
			C146.71,40.21,146.03,41.29,146.03,42.5 M146.11,38.28c0.54-0.66,1.49-1.06,2.75-1.06c2.89,0,4.82,2.15,4.82,5.18
			c0,3.13-1.63,4.96-4.54,5.14c-1.1,0.06-2.43-0.28-3.27-1.24l-0.16,1.07h-3.3V33.3h3.7V38.28z"/>
		<path class="st2" d="M158.46,42.4c0,1.38,0.89,2.17,1.99,2.17c1.25,0,2.05-1,2.05-2.17c0-1.33-0.74-2.19-2.05-2.19
			C159.35,40.21,158.46,41.02,158.46,42.4 M162.7,37.44h3.48v9.93h-3.42l-0.16-1.07c-0.84,0.97-2.17,1.31-3.27,1.25
			c-2.91-0.18-4.54-2.25-4.54-5.14c0-2.93,1.93-5.18,4.82-5.18c1.41,0,2.39,0.48,2.91,1.29L162.7,37.44z"/>
		<path class="st2" d="M172.07,37.6h-3.72v9.76h3.72V37.6z M170.22,33.02c1.03,0,2.07,0.62,2.07,1.87c0,1.23-1.04,1.85-2.07,1.85
			c-1.04,0-2.09-0.62-2.09-1.85C168.13,33.64,169.17,33.02,170.22,33.02"/>
		<polygon class="st2" points="105.75,56.6 102.15,60.86 101.45,60.86 97.93,56.62 97.93,64.97 93.99,64.97 93.99,50.91 
			98.15,50.91 101.85,55.67 105.55,50.91 109.68,50.91 109.68,64.97 105.75,64.97 		"/>
		<path class="st2" d="M118.84,58.69c-0.1-1.57-3.35-1.63-3.6,0H118.84z M122.15,61.06h-6.93c0.26,0.88,1.41,1.27,2.21,1.27
			c1.09,0,1.91-0.32,2.55-0.8l1.81,2.03c-1.18,1.11-2.81,1.65-4.52,1.65c-3.14,0-5.79-1.55-5.79-5.16c0-3.62,2.83-5.23,5.52-5.23
			C120.52,54.81,123,57.14,122.15,61.06"/>
		<path class="st2" d="M128.29,52.24v2.87h2.23v2.83h-2.25v3.25c0.02,0.71,0.42,0.97,0.99,0.97c0.36,0,0.78-0.14,1.08-0.34l0.8,2.73
			c-0.85,0.48-1.83,0.66-2.85,0.66c-1.97,0-3.74-0.9-3.68-4.02v-3.25h-1.59v-2.83h1.59v-2.47L128.29,52.24z"/>
		<path class="st2" d="M136.04,55.05l0.22,1.09c0.52-0.93,1.45-1.33,2.41-1.33c1,0,1.97,0.38,2.61,1.07l-1.49,2.67
			c-0.6-0.48-1.05-0.6-1.67-0.6c-0.92,0-1.71,0.56-1.71,1.87v5.16h-3.7v-9.93H136.04z"/>
		<path class="st2" d="M148.78,60.03c0-1.15-0.74-2.17-2.05-2.17s-2.05,1.02-2.05,2.17c0,1.14,0.74,2.15,2.05,2.15
			C147.98,62.18,148.78,61.24,148.78,60.03 M152.4,60.03c0,3.61-2.87,5.18-5.67,5.18c-2.85,0-5.66-1.57-5.66-5.18
			c0-3.68,2.79-5.2,5.66-5.2C149.66,54.83,152.4,56.42,152.4,60.03"/>
		<path class="st1" d="M61.75,60.72L38.23,47.15v-5.94l-6.52,3.8l0,0v5.92l6.52,3.75l-10.48,6.05V53.2l-6.53-3.77l23.53-13.59
			l5.19,2.99V31.3l-5.19-2.99l-6.52,3.77l0,0V19.99l6.53,3.77l6.54-3.77l0,0l-0.01,27.17l-5.15,2.97l6.52,3.77l5.14-2.97v-7.54
			l10.46,6.04l-6.52,3.77L61.75,60.72z M57.81,35.84V8.68l-13.05,7.54L31.71,8.68l0.01,27.16L8.17,49.44l13.05,7.54v15.07
			L44.7,58.43l23.56,13.6V56.95l13.05-7.54L57.81,35.84z"/>
	</g>
</g>
</svg>
