<?xml version="1.0" encoding="UTF-8"?>
<!DOCTYPE svg PUBLIC "-//W3C//DTD SVG 1.1//EN" "http://www.w3.org/Graphics/SVG/1.1/DTD/svg11.dtd">
<!-- Creator: CorelDRAW 2021 (64-Bit) -->
<svg xmlns="http://www.w3.org/2000/svg" xml:space="preserve" width="210mm" height="110mm" version="1.1" style="shape-rendering:geometricPrecision; text-rendering:geometricPrecision; image-rendering:optimizeQuality; fill-rule:evenodd; clip-rule:evenodd"
viewBox="0 0 21000 11000"
 xmlns:xlink="http://www.w3.org/1999/xlink"
 xmlns:xodm="http://www.corel.com/coreldraw/odm/2003">
 <defs>
  <style type="text/css">
   <![CDATA[
    .fil3 {fill:none}
    .fil1 {fill:#222568}
    .fil0 {fill:#959493;fill-rule:nonzero}
    .fil2 {fill:#222568;fill-rule:nonzero}
   ]]>
  </style>
 </defs>
 <g id="Layer_x0020_1">
  <metadata id="CorelCorpID_0Corel-Layer"/>
  <g id="_2526822494688">
   <path class="fil0" d="M12490.84 9423.42l0 -757.86 102.1 0 0 757.86 -102.1 0zm549.13 -470.33l0 -287.53 91.58 0 0 663.48c0,27.01 0.35,46.84 1.05,59.47 0.7,12.63 1.76,23.86 2.98,33.68l-89.47 0 -5.08 -51.05c-16.84,21.75 -35.44,37.89 -55.97,48.25 -20.52,10.35 -44.03,15.61 -70.34,15.61 -59.65,0 -103.51,-21.76 -131.58,-65.26 -28.07,-43.51 -42.1,-111.58 -42.1,-204.38 0,-96.84 14.03,-168.41 42.1,-214.73 28.07,-46.14 71.58,-69.29 130.52,-69.29 27.02,0 51.05,5.96 72.11,17.89 21.05,11.93 39.12,30 54.2,53.86zm-106.31 5.09c-33.86,0 -58.94,16.31 -75.43,48.94 -16.32,32.46 -24.56,82.63 -24.56,150.17 0,78.77 7.89,133.68 23.86,164.38 15.96,30.7 42.98,45.96 81.4,45.96 35.26,0 60.87,-16.31 77.01,-48.94 15.96,-32.46 24.03,-85.26 24.03,-158.42 0,-71.92 -8.42,-123.68 -25.08,-155.08 -16.84,-31.4 -43.86,-47.01 -81.23,-47.01zm432.47 153.67l204.21 0 0 -45.08c0,-39.83 -8.25,-69.82 -24.74,-90.35 -16.49,-20.53 -40.52,-30.88 -72.45,-30.88 -35.61,0 -62.11,13.34 -79.47,40 -17.37,26.67 -26.49,68.77 -27.55,126.31zm293.68 146.31c-2.81,55.79 -20.88,99.3 -54.21,130.7 -33.33,31.4 -78.42,47.19 -135.43,47.19 -70.53,0 -121.05,-21.58 -151.75,-64.73 -30.7,-43.16 -45.97,-115.26 -45.97,-216.14 0,-94.9 15.79,-163.85 47.2,-207 31.57,-43.16 81.75,-64.74 150.52,-64.74 65.43,0 113.5,17.19 143.85,51.58 30.52,34.38 45.79,88.77 45.79,162.97l0 82.28 -294.2 0 0 30.35c0,52.1 8.24,90 24.91,113.33 16.67,23.51 43.16,35.26 79.47,35.26 27.89,0 50.17,-8.77 67.19,-26.14 17.02,-17.54 27.72,-42.45 32.1,-74.91l90.53 0zm223 -225.25l-96.84 0 0 -10.35c0,-45.79 15.79,-80.7 47.54,-104.38 31.58,-23.86 78.25,-35.79 140,-35.79 60.87,0 105.78,12.45 134.55,37.19 28.78,24.91 43.16,63.68 43.16,116.49l0 246.48c0,24.38 0.7,48.24 2.28,71.75 1.58,23.51 3.86,46.49 7.02,69.12l-90.52 0 -6.14 -66.49c-17.9,22.98 -38.6,40.7 -62.28,53.16 -23.69,12.45 -48.42,18.59 -74.56,18.59 -44.91,0 -81.4,-14.91 -109.47,-44.73 -28.07,-29.83 -42.1,-68.77 -42.1,-117.19 0,-60.52 19.64,-106.31 58.77,-137.01 39.29,-30.88 97.89,-46.32 175.6,-46.32l50.88 0 0 -26.31c0,-41.4 -6.14,-70 -18.25,-85.79 -12.1,-15.79 -33.15,-23.68 -62.98,-23.68 -31.93,0 -55.96,6.84 -72.27,20.35 -16.32,13.51 -24.39,33.33 -24.39,59.82l0 5.09zm178.94 113.68c-72.98,0 -123.85,8.42 -152.63,25.44 -28.77,16.84 -43.15,45.43 -43.15,85.78 0,26.14 7.89,47.72 23.68,64.91 15.79,17.37 35.61,25.97 59.47,25.97 35.79,0 63.33,-13.86 82.98,-41.76 19.83,-27.89 29.65,-67.71 29.65,-119.29l0 -41.05zm221.96 115.78l98.94 0c1.05,32.28 9.12,56.84 24.21,73.69 15.09,16.84 36.84,25.26 65.26,25.26 25.96,0 46.84,-6.49 62.63,-19.3 15.79,-12.81 23.68,-30 23.68,-51.23 0,-15.79 -5.96,-30.17 -17.72,-43.15 -11.93,-13.16 -31.57,-26.84 -58.94,-41.23l-95.96 -49.3c-34.74,-18.06 -59.12,-36.49 -73.33,-55.26 -14.21,-18.59 -21.41,-41.57 -21.41,-68.94 0,-45.26 16.85,-81.75 50.35,-109.65 33.69,-27.89 77.89,-41.92 132.63,-41.92 53.51,0 95.78,12.63 127.01,38.06 31.23,25.27 46.84,59.65 46.84,103.16l0 9.3 -96.84 0c0,-25.97 -7.54,-46.32 -22.63,-61.05 -15.08,-14.74 -35.79,-22.11 -62.63,-22.11 -23.5,0 -42.8,6.32 -57.71,18.77 -14.91,12.46 -22.28,28.25 -22.28,47.37 0,13.51 4.03,25.09 12.28,34.91 8.24,10 22.1,19.82 41.57,29.3l87.19 43.15c50,25.09 84.04,48.6 102.28,70.7 18.07,22.11 27.19,49.3 27.19,81.93 0,48.94 -17.01,88.07 -51.22,117.36 -34.04,29.3 -79.47,43.86 -136.31,43.86 -60.7,0 -106.67,-14.74 -137.72,-44.21 -31.22,-29.47 -47.01,-72.63 -47.36,-129.47zm1080.89 -104.2c0,-96.14 15.79,-165.96 47.54,-209.47 31.76,-43.51 82.11,-65.26 151.4,-65.26 69.47,0 120,21.58 151.05,64.91 31.22,43.33 46.84,113.68 46.84,210.87 0,97.19 -15.62,167.71 -47.02,211.4 -31.4,43.68 -81.57,65.43 -150.87,65.43 -70,0 -120.52,-21.75 -151.92,-65.43 -31.41,-43.69 -47.02,-114.56 -47.02,-212.45zm198.94 -197.89c-37.72,0 -64.73,15.44 -81.4,46.31 -16.67,30.88 -24.91,81.76 -24.91,152.63 0,72.28 8.24,123.68 24.56,154.2 16.49,30.53 43.68,45.79 81.75,45.79 37.72,0 64.56,-15.26 80.87,-45.79 16.32,-30.52 24.39,-81.57 24.39,-153.15 0,-72.63 -8.07,-124.2 -24.39,-154.55 -16.31,-30.35 -43.15,-45.44 -80.87,-45.44zm699.66 34.74l73.68 0c54.74,0 94.74,-10.71 119.47,-31.93 24.91,-21.23 37.37,-55.44 37.37,-102.81 0,-38.77 -9.83,-67.71 -29.3,-87.01 -19.65,-19.12 -49.12,-28.77 -88.42,-28.77l-112.8 0 0 250.52zm98.77 -329.46c80.87,0 139.64,14.56 176.48,43.68 36.84,29.12 55.27,75.43 55.27,138.76 0,50.35 -10.71,90.7 -32.11,121.05 -21.4,30.35 -54.03,51.58 -98.24,63.86 40.7,4.56 69.65,18.59 86.84,42.45 17.01,23.86 25.61,62.63 25.61,116.31 0,10.71 -0.17,24.39 -0.53,41.41 -0.35,17.01 -0.52,28.77 -0.52,35.78 0,28.78 1.58,55.79 4.91,81.4 3.16,25.44 8.25,49.83 15.09,73.16l-103.16 0c-10.17,-33.86 -15.61,-90.35 -16.31,-169.12 -0.35,-28.42 -0.88,-50.35 -1.58,-65.61 -1.05,-41.57 -8.25,-70.52 -21.93,-86.84 -13.51,-16.49 -36.31,-24.73 -68.59,-24.73l-120 0 0 346.3 -99.99 0 0 -757.86 198.76 0zm456.67 446.29l204.21 0 0 -45.08c0,-39.83 -8.25,-69.82 -24.74,-90.35 -16.49,-20.53 -40.52,-30.88 -72.45,-30.88 -35.61,0 -62.11,13.34 -79.47,40 -17.37,26.67 -26.49,68.77 -27.55,126.31zm293.68 146.31c-2.81,55.79 -20.88,99.3 -54.21,130.7 -33.33,31.4 -78.42,47.19 -135.43,47.19 -70.53,0 -121.05,-21.58 -151.75,-64.73 -30.7,-43.16 -45.97,-115.26 -45.97,-216.14 0,-94.9 15.79,-163.85 47.2,-207 31.57,-43.16 81.75,-64.74 150.52,-64.74 65.43,0 113.5,17.19 143.85,51.58 30.52,34.38 45.79,88.77 45.79,162.97l0 82.28 -294.2 0 0 30.35c0,52.1 8.24,90 24.91,113.33 16.67,23.51 43.16,35.26 79.47,35.26 27.89,0 50.17,-8.77 67.19,-26.14 17.02,-17.54 27.72,-42.45 32.1,-74.91l90.53 0zm223 -225.25l-96.84 0 0 -10.35c0,-45.79 15.79,-80.7 47.54,-104.38 31.58,-23.86 78.25,-35.79 140,-35.79 60.87,0 105.78,12.45 134.55,37.19 28.78,24.91 43.16,63.68 43.16,116.49l0 246.48c0,24.38 0.7,48.24 2.28,71.75 1.58,23.51 3.86,46.49 7.02,69.12l-90.52 0 -6.14 -66.49c-17.9,22.98 -38.6,40.7 -62.28,53.16 -23.69,12.45 -48.42,18.59 -74.56,18.59 -44.91,0 -81.4,-14.91 -109.47,-44.73 -28.07,-29.83 -42.1,-68.77 -42.1,-117.19 0,-60.52 19.64,-106.31 58.77,-137.01 39.29,-30.88 97.89,-46.32 175.6,-46.32l50.88 0 0 -26.31c0,-41.4 -6.14,-70 -18.25,-85.79 -12.1,-15.79 -33.15,-23.68 -62.98,-23.68 -31.93,0 -55.96,6.84 -72.27,20.35 -16.32,13.51 -24.39,33.33 -24.39,59.82l0 5.09zm178.94 113.68c-72.98,0 -123.85,8.42 -152.63,25.44 -28.77,16.84 -43.15,45.43 -43.15,85.78 0,26.14 7.89,47.72 23.68,64.91 15.79,17.37 35.61,25.97 59.47,25.97 35.79,0 63.33,-13.86 82.98,-41.76 19.83,-27.89 29.65,-67.71 29.65,-119.29l0 -41.05zm330.37 276.83l-90.52 0 0 -757.86 90.52 0 0 757.86zm159.5 -661.03l0 -96.83 87.37 0 0 96.83 -87.37 0zm0 661.03l0 -528.4 87.37 0 0 528.4 -87.37 0zm367.04 -677.87l0 149.47 105.26 0 0 65.26 -105.26 0 0 316.48c0,28.42 4.38,48.07 13.16,58.94 8.59,10.71 24.73,16.14 47.89,16.14 8.24,0 21.93,-0.7 41.05,-2.1l3.16 0 -0.53 68.59c-14.03,3.16 -27.19,5.44 -39.47,7.02 -12.46,1.58 -23.86,2.28 -34.56,2.28 -44.56,0 -75.79,-8.77 -94.03,-26.31 -18.07,-17.55 -27.2,-48.42 -27.2,-92.63l0 -348.41 -80.17 0 0 -65.26 80.17 0 0 -106.31 90.53 -43.16zm381.06 877.86l-89.47 0 58.07 -199.99 -181.39 -528.4 106.31 0 126.48 417.88 125.44 -417.88 97.54 0 -242.98 728.39zm-3590.63 -877.86l0 149.47 105.26 0 0 65.26 -105.26 0 0 316.48c0,28.42 4.38,48.07 13.16,58.94 8.59,10.71 24.73,16.14 47.89,16.14 8.24,0 21.93,-0.7 41.05,-2.1l3.16 0 -0.53 68.59c-14.03,3.16 -27.19,5.44 -39.47,7.02 -12.46,1.58 -23.86,2.28 -34.56,2.28 -44.56,0 -75.79,-8.77 -94.03,-26.31 -18.07,-17.55 -27.2,-48.42 -27.2,-92.63l0 -348.41 -80.17 0 0 -65.26 80.17 0 0 -106.31 90.53 -43.16zm3956.62 677.87l0 -116.84 99.99 0 0 116.84 -99.99 0zm288.27 0l0 -116.84 99.99 0 0 116.84 -99.99 0zm288.27 0l0 -116.84 99.99 0 0 116.84 -99.99 0z"/>
   <g>
    <polygon class="fil1" points="5172.53,7597.35 1989.63,1859.13 8019.27,1859.13 7279.61,3181.65 4253.6,3181.65 4500.13,3629.89 5979.54,3629.89 6752.84,4952.32 7032.99,4504.08 6517.41,3611 7580.86,3590.83 8905.83,1376.59 1205.15,1376.59 4881.19,8045.67 "/>
    <polygon class="fil1" points="7201.07,2282.97 7032.99,2733.33 3491.49,2733.33 4272.58,4086.17 5732.93,4086.17 6487.08,5408.77 5426.17,7139.11 4251.65,5059.57 5262.24,5059.57 5452.69,5389.46 4959.63,5389.46 5493.35,6313.89 5988.86,5455.62 5458.87,4537.63 4006.99,4537.63 2705.23,2282.97 "/>
   </g>
   <path class="fil2" d="M16555.87 5178.17c162.5,60.76 328.19,112.82 497.08,156.23 168.89,43.39 332.46,65.09 490.65,65.09 132.56,0 255.49,-15.19 368.8,-45.56 113.32,-30.39 211.65,-75.96 295.05,-136.72 83.36,-60.74 148.57,-134.51 195.6,-221.31 47.03,-86.8 70.56,-188.79 70.56,-305.96 0,-86.8 -19.25,-162.74 -57.72,-227.82 -38.5,-65.11 -87.67,-123.68 -147.52,-175.77 -59.87,-52.08 -130.41,-100.89 -211.65,-146.46 -81.24,-45.58 -162.5,-94.38 -243.74,-146.47 -273.64,-164.9 -490.65,-335.23 -650.99,-510.99 -160.35,-175.76 -240.52,-382.99 -240.52,-621.67 0,-234.34 40.62,-443.73 121.86,-628.16 81.24,-184.44 196.69,-339.6 346.33,-465.44 149.68,-125.87 330.33,-222.41 541.98,-289.68 211.66,-67.27 450.04,-100.89 715.13,-100.89 235.18,0 438.3,17.35 609.32,52.06 171.03,34.72 350.61,88.96 538.75,162.74 -17.09,117.17 -47.03,240.85 -89.77,371.04 -42.79,130.21 -102.61,258.22 -179.61,384.08 -123.98,-60.76 -251.2,-110.66 -381.61,-149.72 -130.43,-39.06 -300.37,-58.6 -509.88,-58.6 -76.99,0 -159.31,6.51 -246.95,19.54 -87.65,13.02 -166.77,37.97 -237.31,74.87 -70.57,36.88 -129.34,87.87 -176.39,152.95 -47.03,65.11 -70.53,149.72 -70.53,253.89 0,147.54 52.37,269.05 157.12,364.53 104.76,95.47 238.38,190.95 400.88,286.42 145.36,82.45 280.06,164.9 404.06,247.36 124,82.45 233.04,171.41 327.12,266.89 94.06,95.47 167.82,202.89 221.26,322.23 53.46,119.35 80.16,257.12 80.16,413.35 0,221.34 -39.54,433.98 -118.64,637.95 -79.12,203.97 -200.98,381.89 -365.58,533.78 -164.64,151.88 -373.08,273.4 -625.37,364.53 -252.25,91.14 -551.57,136.7 -897.92,136.7 -401.93,0 -797.46,-75.95 -1186.55,-227.83 17.11,-130.19 48.1,-261.47 93.01,-393.83 44.88,-132.37 99.39,-270.14 163.53,-413.35zm-2963.16 -3716.97c179.56,-34.71 345.25,-57.5 497.06,-68.34 151.8,-10.85 306.8,-16.27 465.01,-16.27 218.06,0 429.71,18.44 634.96,55.32 205.24,36.9 389.11,101.98 551.59,195.29 162.48,93.31 292.89,221.32 391.24,384.06 98.34,162.74 147.51,367.8 147.51,615.16 0,199.62 -28.85,379.71 -86.57,540.29 -57.75,160.58 -130.42,304.86 -218.09,432.89 -87.67,128.02 -182.78,236.52 -285.41,325.48 -102.63,88.96 -200.95,161.65 -295.03,218.06l-76.97 45.58 686.27 1946.35c-179.57,26.04 -352.74,39.06 -519.51,39.06 -166.76,0 -322.83,-13.02 -468.21,-39.06l-711.95 -2174.2 109.06 -65.09c64.14,-39.06 147.52,-85.7 250.13,-139.95 102.61,-54.25 203.1,-125.86 301.47,-214.83 98.32,-88.96 182.78,-196.36 253.34,-322.21 70.52,-125.86 105.81,-277.74 105.81,-455.67 0,-112.84 -19.23,-207.22 -57.71,-283.17 -38.5,-75.94 -90.86,-137.79 -157.14,-185.52 -66.28,-47.74 -142.18,-81.37 -227.71,-100.9 -85.5,-19.53 -173.15,-29.29 -262.96,-29.29 -89.78,0 -162.48,6.51 -218.06,19.53l-686.28 3951.3c-85.52,8.67 -165.69,16.28 -240.52,22.79 -74.83,6.51 -148.59,9.76 -221.28,9.76 -68.4,0 -143.23,-2.18 -224.47,-6.51 -81.24,-4.34 -162.5,-13.02 -243.73,-26.04l808.15 -4673.87zm-3200.5 2375.99c55.58,13.02 151.79,19.53 288.63,19.53 102.61,0 207.38,-17.35 314.26,-52.08 106.9,-34.72 205.26,-93.29 295.03,-175.75 89.82,-82.45 163.58,-190.94 221.3,-325.48 57.71,-134.54 86.58,-303.79 86.58,-507.74 0,-125.86 -20.3,-230.01 -60.92,-312.46 -40.62,-82.45 -94.08,-146.47 -160.36,-192.04 -66.28,-45.57 -140.03,-77.03 -221.27,-94.38 -81.24,-17.37 -160.36,-26.04 -237.31,-26.04 -34.21,0 -66.28,0 -96.2,0 -29.95,0 -76.98,4.34 -141.11,13.02l-288.63 1653.42zm-519.5 -2395.52c94.06,-8.67 181.72,-17.35 262.96,-26.04 81.24,-8.67 161.41,-16.28 240.51,-22.77 79.12,-6.51 158.19,-10.85 237.31,-13.02 79.11,-2.18 165.69,-3.25 259.75,-3.25 183.87,0 376.27,17.35 577.25,52.06 200.98,34.72 384.83,100.91 551.59,198.55 166.75,97.64 304.66,235.43 413.68,413.36 109.06,177.92 163.55,407.93 163.55,690.01 0,273.4 -45.95,527.27 -137.89,761.62 -91.94,234.34 -225.54,437.22 -400.86,608.63 -175.3,171.42 -389.09,304.89 -641.36,400.36 -252.3,95.47 -538.78,143.21 -859.47,143.21 -68.4,0 -124,-1.09 -166.75,-3.26 -42.76,-2.18 -83.38,-5.43 -121.86,-9.76l-256.55 1503.7c-85.53,13.02 -166.77,21.7 -243.74,26.04 -76.96,4.33 -151.79,6.51 -224.47,6.51 -64.16,0 -135.77,-2.18 -214.87,-6.51 -79.1,-4.34 -163.55,-13.02 -253.36,-26.04l814.58 -4693.4z"/>
   <path class="fil2" d="M8709.73 8070.15l214.7 0 192.8 -1211.06 -214.71 0 -192.79 1211.06zm1215.93 0l153.36 0 192.06 -1211.06 -205.94 0 -59.88 426.15c-38.71,270.34 -46.74,373.93 -46.74,425.3l-2.19 0.85c-8.77,-37.06 -48.93,-129.7 -103.7,-255.19 -18.99,-42.11 -39.44,-87.58 -60.62,-136.43l-203.75 -460.68 -153.36 0 -192.07 1211.06 205.95 0 59.88 -426.14c37.25,-271.18 46.74,-373.93 46.74,-425.31l2.2 -0.84c8.75,37.06 48.19,130.54 104.42,255.18l59.88 136.44 203.76 460.67zm465.18 0l210.33 0 83.25 -523.83 324.98 0 27.75 -173.49 -324.97 0 53.31 -336.88 355.64 0 27.76 -176.86 -565.25 0 -192.8 1211.06zm1358.34 -486.21c5.84,0 18.26,-3.38 29.21,-6.75 105.16,-33.68 230.04,-179.09 230.04,-380.95 0,-220.36 -149.71,-350.34 -397.27,-350.34 -46.01,0 -91.29,3.37 -136.57,10.1l-129.26 20.22 -190.6 1193.93 210.32 0 165.77 -1039.54c16.8,-4.2 43.09,-10.1 77.42,-10.1 124.87,0 194.25,82.54 194.25,200.16 0,143.73 -100.78,261.64 -240.27,261.64l-16.79 0c-6.57,0 -12.41,-0.84 -17.53,-1.68l-7.3 45.19 234.42 544.33 216.9 0 2.92 -15.16 -181.85 -383.47c-17.52,-35.37 -39.43,-79.17 -43.81,-84.22l0 -3.36zm458.62 486.21l138.75 -276.23 456.43 0 53.31 276.23 210.32 0 4.39 -26.95 -257.07 -1184.11 -181.84 0 -633.16 1184.11 -4.38 26.95 213.25 0zm329.36 -654.37c50.38,-103.59 104.43,-216.45 138.02,-302.35l2.92 0 10.23 60.64c10.22,68.22 24.09,152.43 40.16,231.6l43.82 228.23 -345.42 0 110.27 -218.12zm1008.52 108.08l47.48 124.92c16.79,3.37 40.16,5.06 58.42,5.06 186.95,0 395.81,-163.67 395.81,-439.62 0,-230.76 -146.78,-368.32 -404.58,-368.32 -50.39,0 -97.85,3.37 -143.86,10.94l-123.42 20.22 -189.88 1193.09 210.32 0 165.78 -1039.54c26.3,-6.73 53.32,-10.1 80.34,-10.1 128.53,0 203.74,81.42 203.74,211.39 0,147.66 -99.32,262.48 -241.72,262.48 -23.37,0 -40.17,-2.52 -52.59,-6.74l-5.84 36.22zm1133.41 60.08c5.84,0 18.26,-3.38 29.21,-6.75 105.16,-33.68 230.04,-179.09 230.04,-380.95 0,-220.36 -149.71,-350.34 -397.27,-350.34 -46.01,0 -91.29,3.37 -136.57,10.1l-129.26 20.22 -190.6 1193.93 210.32 0 165.78 -1039.54c16.79,-4.2 43.08,-10.1 77.4,-10.1 124.89,0 194.26,82.54 194.26,200.16 0,143.73 -100.78,261.64 -240.27,261.64l-16.79 0c-6.57,0 -12.42,-0.84 -17.53,-1.68l-7.3 45.19 234.42 544.33 216.9 0 2.92 -15.16 -181.84 -383.47c-17.53,-35.37 -39.44,-79.17 -43.82,-84.22l0 -3.36zm769.72 508.11c366.6,0 553.55,-399.19 553.55,-753.75 0,-332.67 -163.58,-501.1 -400.19,-501.1 -366.61,0 -553.55,399.2 -553.55,753.75 0,332.66 163.58,501.1 400.19,501.1zm139.49 -1077.99c147.51,0 202.28,148.22 202.28,336.87 0,296.45 -130.71,564.26 -327.9,564.26 -147.51,0 -202.28,-148.22 -202.28,-336.87 0,-296.45 130.72,-564.26 327.9,-564.26zm1011.44 1056.09l597.38 0 27.75 -176.85 -387.06 0 59.15 -368.88 321.34 0 27.75 -173.49 -321.33 0 49.66 -314.98 355.65 0 27.75 -176.86 -565.24 0 -192.8 1211.06zm1454.74 -249c-47.48,47.73 -148.99,94.04 -246.84,94.04 -167.97,0 -219.82,-138.68 -219.82,-334.06 0,-298.7 121.96,-567.36 347.62,-567.36 104.42,0 189.14,55.59 220.54,90.12l38.71 -186.41c-52.58,-42.94 -149.71,-80 -262.18,-80 -370.98,0 -556.47,398.63 -556.47,752.91 0,333.22 163.58,501.66 397.28,501.66 115.38,0 211.78,-40.42 259.24,-76.63l21.92 -194.27zm195.95 -785.2l305.27 0 -164.33 1034.2 210.33 0 164.56 -1034.2 305.99 0 27.75 -176.86 -821.82 0 -27.75 176.86zm1259.51 -197.07c-204.73,0 -383.16,123.8 -383.16,353.16 0,188.08 120.74,281.57 228.09,341.92 71.81,40.43 161.64,90.68 161.64,199.04 0,129.42 -125.61,180.79 -231.75,180.79 -83.49,0 -195.23,-32.84 -257.3,-83.94l-37.98 182.75c78.88,52.22 197.91,77.49 298.94,77.49 236.12,0 431.11,-137.56 431.11,-378.7 0,-212.8 -157.75,-300.1 -259.99,-357.09 -60.61,-33.69 -134.61,-87.59 -134.61,-180.79 0,-100.78 87.15,-157.77 192.31,-157.77 81.06,0 184.03,32.57 240.99,82.26l36.52 -182.48c-70.11,-47.16 -184.77,-76.64 -284.81,-76.64zm-3354.7 1047.12c-29.21,174.33 -54.77,245.64 -89.83,292.8 -32.13,42.95 -86.17,79.17 -159.93,91.79l-13.87 176.86c154.82,-10.1 265.82,-74.11 339.09,-165.07 65.73,-82.53 105.16,-192.86 141.68,-419.96l29.21 -178.55c50.39,-307.95 106.62,-652.97 130.72,-824.78l-213.97 0c-21.18,149.07 -66.46,433.45 -107.6,687.78 -21.18,126.9 -40.89,247.33 -55.5,339.13z"/>
  </g>
  <rect class="fil3" x="-0.1" width="21000" height="11000"/>
 </g>
</svg>
