<svg width="63" height="54" viewBox="0 0 63 54" fill="none" xmlns="http://www.w3.org/2000/svg">
<path d="M5.57213 3.64045C5.57213 3.64045 24.4733 37.2369 31.5256 50.3097L29.4263 53.7683L0 0.231697H62.0336C62.0336 0.231697 59.5215 4.46595 59.1657 5.07796C56.7105 9.38338 53.807 13.9521 51.2167 18.1792H42.7055L46.5554 25.5803L44.7194 28.7044L38.6847 18.3358L26.1954 18.1365L24.4448 15.0907H48.7402L55.7498 3.32733H55.394L5.5579 3.64045H5.57213Z" fill="white"/>
<path d="M17.6486 11.2194L23.9324 22.442L36.2224 22.3566L42.0436 33.1237L33.874 46.3388L24.4519 29.4872L32.038 29.6295L33.4257 32.7323L30.0667 32.7536L34.2298 39.9127L38.5424 33.1237L34.301 25.3027L21.9612 25.3099L12.0694 7.66122H48.5978L46.5198 11.0771" fill="white"/>
</svg>
