<svg width="169" height="54" viewBox="0 0 169 54" fill="none" xmlns="http://www.w3.org/2000/svg">
<path d="M5.57213 3.64045C5.57213 3.64045 24.4733 37.2369 31.5256 50.3097L29.4263 53.7683L0 0.231697H62.0336C62.0336 0.231697 59.5215 4.46595 59.1657 5.07796C56.7105 9.38338 53.807 13.9521 51.2167 18.1792H42.7055L46.5554 25.5803L44.7194 28.7044L38.6847 18.3358L26.1954 18.1365L24.4448 15.0907H48.7402L55.7498 3.32733H55.394L5.5579 3.64045H5.57213Z" fill="white"/>
<path d="M17.6486 11.2194L23.9324 22.442L36.2224 22.3566L42.0436 33.1237L33.874 46.3388L24.4519 29.4872L32.038 29.6295L33.4257 32.7323L30.0667 32.7536L34.2298 39.9127L38.5424 33.1237L34.301 25.3027L21.9612 25.3099L12.0694 7.66122H48.5978L46.5198 11.0771" fill="white"/>
<path d="M67.627 13.8311H72.516C75.5405 13.8311 77.8177 14.9626 77.8177 17.9373C77.8177 22.2569 74.5797 23.9222 70.68 23.9222H68.8511L67.7836 29.295H64.5314L67.627 13.824V13.8311ZM71.0215 21.3531C73.3201 21.3531 74.6011 20.3426 74.6011 18.4141C74.6011 17.0193 73.6546 16.4001 72.0107 16.4001H70.3526L69.3919 21.3531H71.0287H71.0215Z" fill="#FED700"/>
<path d="M81.4613 13.8311H86.3147C89.3534 13.8311 91.6093 14.9057 91.6093 17.7878C91.6093 21.8442 88.3144 23.6233 84.7064 23.6233H82.7423L81.625 29.3021H78.3728L81.4684 13.8311H81.4613ZM84.9199 21.0543C87.2185 21.0543 88.3927 19.9512 88.3927 18.2646C88.3927 16.9694 87.4747 16.4001 85.8094 16.4001H84.1798L83.276 21.0471H84.9199V21.0543ZM84.379 22.876L86.7274 20.7909L90.065 29.3021H86.6349L84.379 22.876Z" fill="#FED700"/>
<path d="M91.6164 26.6833L93.9434 24.8544C94.7832 26.0428 96.0499 26.8185 97.3878 26.8185C98.7257 26.8185 99.6152 26.1425 99.6152 25.0252C99.6152 24.2068 98.9036 23.7869 97.8076 23.1109L96.3417 22.2071C94.9397 21.3318 94.0288 20.2216 94.0288 18.3429C94.0288 15.6885 96.4342 13.5393 99.4729 13.5393C101.295 13.5393 102.981 14.4502 104.155 15.8806L102.106 17.7949C101.316 16.9623 100.448 16.3432 99.3234 16.3432C98.0496 16.3432 97.3522 17.126 97.3522 18.0084C97.3522 18.8055 98.0781 19.1898 99.2878 19.9441L100.818 20.8763C102.312 21.773 102.974 22.7622 102.974 24.5484C102.974 27.3594 100.676 29.5726 97.1173 29.5726C95.1034 29.5726 93.1108 28.74 91.595 26.6691L91.6164 26.6833Z" fill="#FED700"/>
<path d="M112.524 13.8311H115.776L112.681 29.3021H109.429L112.524 13.8311Z" fill="#FED700"/>
<path d="M119.506 13.8311H122.658L125.184 21.8869L126.01 25.2956H126.102C126.259 23.666 126.38 21.4812 126.743 19.7021L127.924 13.8382H131.02L127.924 29.3093H124.779L122.26 21.2606L121.463 17.8305H121.37C121.214 19.5456 121.043 21.6022 120.68 23.3813L119.498 29.3093H116.403L119.498 13.8382L119.506 13.8311Z" fill="#FED700"/>
<path d="M134.763 13.8311H143.936L143.402 16.5638H137.446L136.706 20.364H141.758L141.225 23.0967H136.179L134.927 29.3093H131.674L134.77 13.8382L134.763 13.8311Z" fill="#FED700"/>
<path d="M146.726 13.8311H151.579C154.618 13.8311 156.874 14.9057 156.874 17.7878C156.874 21.8442 153.572 23.6233 149.971 23.6233H148.007L146.889 29.3021H143.637L146.733 13.8311H146.726ZM150.184 21.0543C152.483 21.0543 153.657 19.9512 153.657 18.2646C153.657 16.9694 152.739 16.4001 151.074 16.4001H149.444L148.533 21.0471H150.177L150.184 21.0543ZM149.643 22.876L151.992 20.7909L155.329 29.3021H151.899L149.643 22.876Z" fill="#FED700"/>
<path d="M163.556 13.8311H167.434L169 29.3021H165.591L165.193 20.919C165.122 19.3961 165.036 17.9444 165.008 16.3219H164.915C164.239 17.9159 163.641 19.3819 162.923 20.919L158.966 29.3021H155.379L163.556 13.8311ZM160.026 22.9543H167.1L166.531 25.4095H159.443L160.026 22.9543Z" fill="#FED700"/>
<path d="M97.9998 35.2087H98.4268L97.1245 41.7274H96.6975L97.9998 35.2087Z" fill="white"/>
<path d="M100.441 35.2087H101.515C103.316 35.2087 104.205 36.2122 104.205 37.7422C104.205 39.9981 102.981 41.7274 100.718 41.7274H99.1384L100.441 35.2087ZM100.732 41.3644C102.675 41.3644 103.778 39.7276 103.778 37.7635C103.778 36.4541 103.031 35.5646 101.494 35.5646H100.782L99.6223 41.3644H100.732Z" fill="white"/>
<path d="M106.347 35.2087H109.785L109.706 35.5717H106.696L106.191 38.0909H108.738L108.66 38.4538H106.127L105.529 41.3644H108.639L108.56 41.7274H105.045L106.347 35.2087Z" fill="white"/>
<path d="M112.809 35.2087H113.264L114.076 41.7274H113.642L113.208 37.8632C113.136 37.1444 113.044 36.4114 112.973 35.6286H112.93C112.546 36.4185 112.169 37.1017 111.77 37.8632L109.692 41.7274H109.215L112.809 35.2087ZM110.824 39.1085H113.613L113.535 39.4572H110.724L110.824 39.1085Z" fill="white"/>
<path d="M114.78 40.7382L115.108 40.5034C115.513 41.1225 116.104 41.4712 116.915 41.4712C117.854 41.4712 118.573 40.8805 118.573 39.9696C118.573 39.4074 118.239 39.0374 117.734 38.7456L116.894 38.2475C116.353 37.9272 115.876 37.4718 115.876 36.7672C115.876 35.8706 116.638 35.0807 117.748 35.0807C118.538 35.0807 119.157 35.4721 119.513 35.9631L119.221 36.2193C118.886 35.7923 118.374 35.4507 117.691 35.4507C116.844 35.4507 116.303 36.0983 116.303 36.7174C116.303 37.3366 116.702 37.6497 117.164 37.913L117.99 38.3969C118.602 38.7527 119 39.2082 119 39.9198C119 41.0727 118.082 41.8412 116.865 41.8412C115.947 41.8412 115.236 41.4498 114.78 40.7382Z" fill="white"/>
<path d="M124.722 35.5859H122.722L122.8 35.2016H127.22L127.141 35.5859H125.149L123.925 41.7203H123.498L124.722 35.5859Z" fill="white"/>
<path d="M127.277 39.1299C127.277 37.3223 128.437 35.0878 130.372 35.0878C131.803 35.0878 132.507 36.2051 132.507 37.7991C132.507 39.6067 131.347 41.8412 129.419 41.8412C127.988 41.8412 127.284 40.724 127.284 39.1299H127.277ZM132.08 37.8418C132.08 36.4328 131.561 35.4507 130.344 35.4507C128.664 35.4507 127.704 37.5429 127.704 39.0801C127.704 40.4891 128.223 41.4712 129.44 41.4712C131.112 41.4712 132.08 39.379 132.08 37.8418Z" fill="white"/>
<path d="M136.734 35.2087H138.371C139.552 35.2087 140.293 35.6286 140.293 36.6463C140.293 37.9628 139.204 38.7527 137.788 38.7527H136.457L135.859 41.7345H135.432L136.734 35.2159V35.2087ZM137.674 38.3898C139.076 38.3898 139.866 37.7422 139.866 36.6818C139.866 35.8706 139.296 35.5646 138.186 35.5646H137.076L136.528 38.3898H137.674ZM137.745 38.6887L138.108 38.4823L139.439 41.7274H138.969L137.745 38.6887Z" fill="white"/>
<path d="M142.178 35.2087H145.615L145.537 35.5717H142.527L142.022 38.0909H144.569L144.491 38.4538H141.958L141.36 41.3644H144.47L144.391 41.7274H140.876L142.178 35.2087Z" fill="white"/>
<path d="M148.647 35.2087H149.103L149.914 41.7274H149.48L149.046 37.8632C148.975 37.1444 148.882 36.4114 148.811 35.6286H148.768C148.384 36.4185 148.007 37.1017 147.608 37.8632L145.53 41.7274H145.053L148.647 35.2087ZM146.662 39.1085H149.451L149.373 39.4572H146.562L146.662 39.1085Z" fill="white"/>
<path d="M152.234 35.2087H152.661L151.437 41.3644H154.34L154.262 41.7274H150.932L152.234 35.2087Z" fill="white"/>
<path d="M156.781 35.2087H157.208L155.906 41.7274H155.479L156.781 35.2087Z" fill="white"/>
<path d="M160.503 35.5859H158.51L158.589 35.2016H163.008L162.93 35.5859H160.93L159.706 41.7203H159.279L160.503 35.5859Z" fill="white"/>
<path d="M164.467 39.0658L163.392 35.2016H163.826L164.374 37.2583C164.495 37.7351 164.609 38.1763 164.744 38.6673H164.773C165.093 38.1976 165.399 37.728 165.719 37.2583L167.143 35.2016H167.598L164.894 39.0658L164.36 41.7203H163.933L164.467 39.0658Z" fill="white"/>
</svg>
